<?xml version="1.0" encoding="UTF-8"?>
<svg id="Layer_1" xmlns="http://www.w3.org/2000/svg" version="1.1" viewBox="0 0 393 73">
  <!-- Generator: Adobe Illustrator 29.3.1, SVG Export Plug-In . SVG Version: 2.1.0 Build 151)  -->
  <defs>
    <style>
      .st0 {
        fill: #004141;
      }

      .st1 {
        fill: #00c1a0;
      }

      .st2 {
        fill: #e94f27;
      }

      .st3 {
        fill: #f2b33f;
      }

      .st4 {
        fill: none;
        stroke: #000;
        stroke-miterlimit: 10;
      }

      .st5 {
        fill: #7eb537;
      }

      .st6 {
        fill: #49a0eb;
      }
    </style>
  </defs>
  <path class="st4" d="M203.6,0v72.3"/>
  <path d="M70.1,20.7v21.6h-3.7v-16.9h0l-6.7,16.9h-2.5l-6.8-16.9h0v16.9h-3.4v-21.6h5.4l6.2,16h.1l6.5-16h5.1ZM73.2,22.4c0-.6.2-1.1.7-1.5.5-.4,1-.6,1.5-.6s1.2.2,1.6.6.7.9.7,1.5-.2,1.1-.7,1.5c-.5.4-1,.6-1.6.6s-1.2-.2-1.5-.6c-.4-.5-.7-1-.7-1.5ZM77.3,26.8v15.5h-3.6v-15.5h3.6ZM88.3,39.7c.6,0,1.2-.1,1.8-.4.7-.3,1.3-.6,1.8-1v3.4c-.6.4-1.3.6-2,.8-.8.2-1.5.3-2.4.3-2.3,0-4.1-.7-5.5-2.1-1.5-1.5-2.1-3.3-2.1-5.5s.8-4.6,2.2-6.1c1.5-1.6,3.5-2.4,6.2-2.4s1.4.1,2,.3c.7.2,1.3.4,1.6.6v3.5c-.6-.4-1.2-.8-1.7-1-.6-.2-1.2-.4-1.8-.4-1.5,0-2.6.5-3.5,1.4-.9,1-1.3,2.2-1.3,3.8s.5,2.8,1.3,3.6,2,1.3,3.4,1.3ZM102.2,26.6c.3,0,.6,0,.8,0s.5.1.6.2v3.7c-.2-.2-.5-.3-.9-.4-.4-.1-.8-.2-1.4-.2-.9,0-1.6.4-2.2,1.2-.6.8-1,1.9-1,3.5v7.8h-3.6v-15.5h3.6v2.4h0c.4-.9.9-1.5,1.5-2,.7-.5,1.5-.7,2.4-.7ZM103.9,34.8c0-2.5.8-4.6,2.1-6.1,1.5-1.5,3.4-2.2,6-2.2s4.3.7,5.6,2.1c1.3,1.4,2,3.4,2,5.8s-.8,4.5-2.1,6c-1.5,1.5-3.4,2.2-5.9,2.2s-4.3-.7-5.7-2.1c-1.4-1.4-2.1-3.4-2.1-5.8ZM107.7,34.7c0,1.6.4,2.8,1.1,3.7.8.9,1.8,1.3,3.1,1.3s2.3-.4,3-1.3c.7-.9,1.1-2.1,1.1-3.8s-.3-2.9-1.1-3.8c-.7-.9-1.7-1.3-3-1.3s-2.3.5-3.1,1.4c-.9,1-1.2,2.2-1.2,3.8ZM125.1,30.9c0,.5.1,1,.5,1.3.4.3,1.1.7,2.2,1.1,1.5.6,2.5,1.3,3,1.9.6.8.9,1.6.9,2.6s-.6,2.6-1.7,3.5c-1.1.9-2.6,1.3-4.6,1.3s-1.4-.1-2.1-.3c-.8-.2-1.5-.4-2-.6v-3.6c.7.5,1.4.9,2.1,1.1.8.3,1.5.4,2.1.4s1.5-.1,1.8-.4c.4-.3.6-.6.6-1.2s-.2-.9-.6-1.3c-.4-.4-1.2-.8-2.3-1.2-1.4-.6-2.3-1.2-2.8-1.9-.6-.7-.9-1.6-.9-2.7s.6-2.5,1.6-3.4c1.1-.9,2.5-1.4,4.3-1.4s1.2,0,1.8.2c.7.2,1.3.3,1.7.5v3.5c-.5-.3-1.1-.6-1.7-.9-.7-.3-1.3-.4-1.9-.4s-1.3.2-1.6.4c-.4.4-.6.7-.6,1.2ZM133.3,34.8c0-2.5.8-4.6,2.1-6.1,1.5-1.5,3.4-2.2,6-2.2s4.3.7,5.6,2.1c1.4,1.5,2,3.4,2,5.8s-.8,4.5-2.1,6c-1.5,1.5-3.4,2.2-5.9,2.2s-4.3-.7-5.7-2.1c-1.3-1.4-2.1-3.4-2.1-5.8ZM137.1,34.7c0,1.6.4,2.8,1.1,3.7.8.9,1.8,1.3,3.1,1.3s2.3-.4,3-1.3c.7-.9,1.1-2.1,1.1-3.8s-.4-2.9-1.1-3.8c-.7-.9-1.7-1.3-3-1.3s-2.3.5-3.1,1.4c-.8,1-1.2,2.2-1.2,3.8ZM161.3,29.8h-5.4v12.5h-3.7v-12.5h-2.6v-3h2.6v-2.1c0-1.6.6-2.9,1.6-4,1.1-1.1,2.4-1.5,4-1.5s.9,0,1.2,0,.7.1.9.2v3.1c-.1,0-.4-.2-.7-.3s-.7-.2-1.1-.2c-.8,0-1.4.3-1.7.7-.4.5-.6,1.2-.6,2.1v1.8h5.4v-3.5l3.6-1.1v4.6h3.7v3h-3.7v7.2c0,1,.2,1.6.5,2,.3.4.9.6,1.6.6s.5,0,.8-.2c.3-.1.6-.2.8-.4v3c-.3.2-.6.3-1.2.4-.6.1-1.1.2-1.6.2-1.5,0-2.7-.4-3.4-1.2-.8-.8-1.2-2-1.2-3.7v-7.9Z"/>
  <path class="st2" d="M17.1,13.5H0v17.1h17.1V13.5Z"/>
  <path class="st5" d="M36,13.5h-17.1v17.1h17.1V13.5Z"/>
  <path class="st6" d="M17.1,32.4H0v17.1h17.1v-17.1Z"/>
  <path class="st3" d="M36,32.4h-17.1v17.1h17.1v-17.1Z"/>
  <path class="st0" d="M253.5,20.3c3.3,0,6,2.3,6.7,5.5h7c-.4-3.3-1.8-6.1-4.4-8.3s-5.7-3.2-9.3-3.2-7.4,1.3-10.1,3.8c-2.7,2.6-4,5.8-4,9.8s1.3,7.2,4,9.7c2.6,2.5,6,3.8,10.1,3.8s6.7-1.1,9.3-3.2,4-4.9,4.4-8.2h-6.9c-.7,3.2-3.4,5.5-6.7,5.5s-7.1-3.2-7.1-7.5c0-4.4,2.9-7.6,7.1-7.6Z"/>
  <path class="st0" d="M307.1,20.7v-5.8h-6.9v26.1h6.9v-12.5c0-4.6,3.7-7.5,9.4-7.5v-6.9c-4.3,0-7.6,2.4-9.4,6.6Z"/>
  <path class="st0" d="M330.9,14.4c-4.1,0-7.4,1.3-10.1,3.8-2.7,2.6-4,5.8-4,9.8s1.3,7.2,4,9.7c2.6,2.5,6,3.8,10.1,3.8s6.1-.9,8.7-2.7c2.5-1.9,4.2-4.2,4.9-7h-6.9c-1,2.4-3.6,4.2-6.6,4.2s-6.4-2.4-7.3-5.8h21c.2-.6.2-1.3.2-2.1,0-4-1.4-7.2-4-9.8-2.6-2.5-6-3.8-10-3.8ZM324,24.8c1.1-3,3.8-4.9,7-4.9s6.2,2,7.3,4.9h-14.3Z"/>
  <path class="st0" d="M367.2,14.7h-4.7l-12.3,17.4v2.9h13.1v5.9h3.9v-5.9h4.6v-3.3h-4.6V14.7ZM363.3,31.7h-9.2l9.2-12.6v12.6Z"/>
  <path class="st0" d="M378.7,37.7c0-.5.1-.9.3-1.3.3-.8,1.3-1.7,1.8-2.2.2-.2.7-.6,1.4-1,.7-.5,1.2-.8,1.4-.9.2-.1.8-.5,1.6-.9,2.2-1.3,3.4-2.1,5-3.7,1.6-1.6,2.4-3.4,2.4-5.7s-.8-4-2.5-5.5c-1.6-1.4-3.7-2.1-6.3-2.1s-4.7.7-6.4,2.2c-1.7,1.5-2.6,3.5-2.7,6h3.7c.2-3.1,2.3-5,5.2-5s5,1.9,5,4.6-2.3,4.9-6.5,7.4c-1,.6-1.7,1-2.2,1.4-.5.3-1.2.8-2,1.6-.9.7-1.5,1.4-1.9,2.1-.9,1.4-1.7,3.6-1.7,6v.4h18.7v-3.3h-14.3Z"/>
  <path class="st0" d="M297.3,27.9c0,7.5-6.1,13.5-13.5,13.5v-6.3h.3c.1,0,.2,0,.4,0,0,0,0,0,.1,0,.1,0,.2,0,.3,0,0,0,0,0,0,0s0,0,0,0c0,0,0,0,0,0,0,0,.2,0,.2,0,.2,0,.3,0,.5-.1,0,0,0,0,0,0,0,0,0,0,.1,0,0,0,0,0,0,0,0,0,.1,0,.2,0,0,0,0,0,0,0,0,0,.1,0,.2,0,0,0,0,0,0,0,0,0,.1,0,.2,0,0,0,0,0,.1,0,0,0,.1,0,.2,0,0,0,0,0,0,0,0,0,.1,0,.2,0,0,0,.1,0,.2-.1,0,0,.1,0,.2-.1h0c0,0,.1,0,.2-.1h.2c0-.2.1-.2.2-.3.1,0,.2-.2.3-.3,0,0,.1,0,.2-.1,0,0,.1-.1.2-.2,0,0,.1,0,.1-.1,0,0,0,0,.1-.1.1-.1.3-.3.4-.4,0,0,.1-.2.2-.2,0,0,0-.1.1-.2,0,0,.1-.2.2-.3,0-.1.1-.2.2-.3.2-.3.3-.6.5-1,0,0,0-.1,0-.2,0,0,0-.1,0-.2,0,0,0-.1,0-.2,0-.1,0-.2,0-.3,0-.1,0-.2,0-.4,0,0,0-.1,0-.2,0,0,0-.1,0-.2,0,0,0,0,0-.1h0c0,0,0,0,0-.1,0-.1,0-.2,0-.3,0,0,0-.1,0-.2h0c0-.1,0-.2,0-.2v-.4c0,0,0-.1,0-.2h0c0-.1,0-.2,0-.2,0-.1,0-.2,0-.4h0s0,0,0,0c0,0,0-.2,0-.3,0,0,0-.1,0-.2,0-.2-.1-.5-.2-.7,0,0,0-.2,0-.3,0,0,0-.2,0-.3,0,0,0-.2-.1-.2,0,0,0-.2-.1-.3,0,0,0-.1,0-.2,0,0,0,0,0-.1,0,0,0,0,0,0,0,0,0,0,0-.1,0,0,0,0,0,0,0,0,0,0,0-.1,0,0,0-.1,0-.2,0-.1-.1-.2-.2-.3,0,0-.1-.1-.2-.2,0,0-.1-.1-.2-.2-.1-.1-.2-.3-.4-.4,0,0,0,0,0,0,0,0-.1-.1-.2-.2-.2-.2-.5-.4-.7-.6,0,0-.2-.1-.3-.2,0,0-.2-.1-.3-.2,0,0,0,0-.1,0-.1,0-.3-.2-.4-.2,0,0,0,0-.1,0,0,0,0,0,0,0,0,0,0,0,0,0-.5-.2-1.1-.4-1.6-.5,0,0-.1,0-.2,0-.2,0-.4,0-.6,0,0,0,0,0-.1,0-.1,0-.3,0-.4,0h0v-6.3c7.4,0,13.5,6,13.5,13.5Z"/>
  <path class="st1" d="M276.9,16.2c0,0,.1,0,.2,0,0,0,0,0,0,0,0,0,0,0,0,0Z"/>
  <path class="st1" d="M277.2,16s0,0-.1,0c0,0,.1,0,.1,0Z"/>
  <path class="st1" d="M277.5,15.9c0,0-.2,0-.2.1,0,0,.2-.1.3-.1,0,0,0,0,0,0Z"/>
  <path class="st1" d="M277.7,15.8s0,0,0,0c0,0,0,0,0,0h0Z"/>
  <path class="st1" d="M277.9,15.7s0,0-.1,0c0,0,0,0,.1,0Z"/>
  <path class="st1" d="M278.3,15.5s0,0,0,0c0,0,0,0,0,0,0,0,0,0,0,0Z"/>
  <path class="st1" d="M278.2,15.6s0,0,0,0c0,0,0,0,0,0Z"/>
  <path class="st1" d="M278.5,15.4s0,0,0,0c0,0,.1,0,.2,0,0,0-.1,0-.1,0Z"/>
  <path class="st1" d="M279.1,15.2s0,0,0,0c0,0,0,0,0,0,0,0,0,0,0,0Z"/>
  <path class="st1" d="M278.8,15.3c0,0-.1,0-.2,0,.1,0,.2,0,.4-.1,0,0,0,0,0,0,0,0,0,0-.1,0Z"/>
  <path class="st1" d="M279.2,15.1s0,0,0,0c0,0,0,0,.1,0,0,0,0,0,0,0Z"/>
  <path class="st1" d="M280,14.9s0,0,0,0h0s0,0,0,0Z"/>
  <path class="st1" d="M279.3,15.1s0,0,0,0t0,0s0,0,0,0Z"/>
  <path class="st1" d="M280.3,14.8h0c0,0,.2,0,.3,0,0,0-.1,0-.2,0,0,0,0,0-.1,0Z"/>
  <path class="st1" d="M280.9,14.7c0,0-.1,0-.2,0,0,0,0,0,0,0s0,0,0,0Z"/>
  <path class="st1" d="M280.9,14.7s0,0,0,0c0,0,.1,0,.2,0,0,0,0,0-.1,0Z"/>
  <path class="st1" d="M281.3,14.6s0,0,0,0c0,0,0,0,0,0Z"/>
  <path class="st1" d="M281.1,14.6s0,0,.1,0c0,0,0,0,0,0,0,0,0,0,0,0Z"/>
  <path class="st1" d="M281.6,14.5s0,0,0,0c0,0,0,0,.1,0,0,0,0,0,0,0Z"/>
  <path class="st1" d="M281.7,14.5h0s0,0,0,0c0,0,0,0,0,0Z"/>
  <path class="st1" d="M283,14.4s0,0-.1,0c0,0,.1,0,.2,0h0Z"/>
  <path class="st1" d="M277.5,39.9s0,0,0,0c0,0,0,0,0,0,0,0,0,0,0,0Z"/>
  <path class="st1" d="M278.3,40.3s0,0,0,0c0,0,0,0,0,0,0,0,0,0,0,0Z"/>
  <path class="st1" d="M278.8,40.5s0,0,0,0c0,0,0,0-.1,0,0,0,0,0,0,0Z"/>
  <path class="st1" d="M278.9,40.5s0,0,0,0c0,0,0,0,0,0t0,0Z"/>
  <path class="st1" d="M279.1,40.6s0,0,0,0c0,0,0,0,0,0,0,0,0,0,0,0Z"/>
  <path class="st1" d="M279.2,40.7s0,0,0,0c0,0,0,0-.1,0,0,0,0,0,0,0Z"/>
  <path class="st1" d="M279.4,40.7h0s0,0,0,0c0,0,0,0,0,0Z"/>
  <path class="st1" d="M279.5,40.8c0,0,.2,0,.2,0,0,0-.2,0-.2,0Z"/>
  <path class="st1" d="M280.1,40.9s0,0,0,0c0,0,0,0,0,0Z"/>
  <path class="st1" d="M280.3,41s0,0,0,0c0,0,0,0,0,0h0Z"/>
  <path class="st1" d="M280.4,41c0,0,.1,0,.2,0,0,0-.1,0-.2,0,0,0,0,0,0,0Z"/>
  <path class="st1" d="M280.9,41.1s0,0,.1,0c0,0-.1,0-.2,0,0,0,0,0,0,0Z"/>
  <path class="st1" d="M281.1,41.2s0,0,0,0c0,0,0,0-.1,0,0,0,0,0,0,0Z"/>
  <path class="st1" d="M280.3,14.8s0,0,0,0,0,0,0,0c0,0,0,0,0,0Z"/>
  <path class="st1" d="M281.7,14.5s0,0,0,0c0,0,0,0,0,0,0,0,0,0,0,0Z"/>
  <path class="st1" d="M282.4,14.4s0,0,.1,0c0,0-.1,0-.2,0,0,0,0,0,0,0h0Z"/>
  <path class="st1" d="M282.8,14.4h0s-.1,0-.2,0c0,0,0,0,.1,0Z"/>
  <path class="st1" d="M276.9,39.6s0,0,0,0c0,0,0,0,0,0,0,0,0,0,0,0Z"/>
  <path class="st1" d="M279.4,40.7s0,0,0,0c0,0,0,0,0,0t0,0Z"/>
  <path class="st1" d="M280.2,41s0,0,0,0h0s0,0,0,0Z"/>
  <path class="st1" d="M281.7,41.3s0,0,0,0c0,0,0,0,0,0,0,0,0,0,0,0Z"/>
  <path class="st1" d="M282.3,41.4c0,0,.1,0,.2,0,0,0,0,0-.1,0s0,0,0,0c0,0,0,0,0,0Z"/>
  <path class="st1" d="M282.7,41.4c0,0,.1,0,.2,0h0c0,0,0,0-.1,0Z"/>
  <path class="st1" d="M283.8,14.4v2h-7.1s0,0,0,0c0,0,0,0,0,0,0,0,.2,0,.2-.1h.2c0-.1,0-.2,0-.2,0,0,.2,0,.2-.1,0,0,0,0,0,0,0,0,0,0,0,0,0,0,0,0,0,0,0,0,0,0,0,0,0,0,.1,0,.2-.1,0,0,.2,0,.3-.1,0,0,0,0,.1,0,0,0,0,0,0,0,0,0,0,0,0,0,0,0,0,0,0,0,0,0,0,0,0,0,0,0,.1,0,.2,0,0,0,.1,0,.1,0,0,0,0,0,.1,0,0,0,.1,0,.2,0,0,0,0,0,0,0,0,0,0,0,0,0,0,0,0,0,0,0,0,0,0,0,0,0s0,0,0,0c0,0,0,0,0,0,0,0,0,0,.1,0,.2,0,.4-.1.5-.2,0,0,0,0,.1,0,0,0,0,0,0,0,0,0,0,0,0,0s0,0,0,0h0s0,0,.1,0c0,0,.1,0,.2,0,0,0,0,0,0,0,0,0,0,0,0,0,0,0,0,0,0,0,0,0,0,0,0,0,0,0,0,0,0,0,0,0,0,0,0,0,0,0,0,0,0,0,0,0,0,0,.1,0,0,0,0,0,.1,0,0,0,0,0,0,0,0,0,0,0,0,0s0,0,0,0h0s0,0,0,0h0s0,0,0,0,0,0,0,0c0,0,0,0,0,0,0,0,.2,0,.3,0,0,0,.2,0,.2,0s0,0,.1,0c0,0,0,0,.1,0h0s0,0,.1,0h0c0,0,.1,0,.1,0h.6Z"/>
  <path class="st1" d="M283.8,20.6v14.6h-11.4c-.4-.6-.8-1.3-1.1-2h7.5c0,0-.1-.1-.1-.1,0,0,0,0,0,0-.1-.1-.2-.3-.4-.4,0,0-.1-.1-.2-.2,0,0-.1-.1-.1-.2,0,0-.1-.2-.2-.3,0,0,0-.1,0-.2,0,0,0,0,0-.1,0,0,0,0,0,0,0,0,0,0,0-.1,0,0,0,0,0,0,0,0,0,0,0-.1,0,0,0-.1,0-.2,0,0,0-.2-.1-.3,0,0,0-.2-.1-.2,0,0,0-.2,0-.3,0,0,0-.2,0-.3,0-.2-.1-.5-.2-.7,0,0,0-.1,0-.2,0,0,0-.2,0-.3h-6.3c0-.3,0-.7,0-1s0-.7,0-1h6.3s0,0,0-.1c0,0,0-.1,0-.2,0,0,0-.1,0-.2,0-.1,0-.2,0-.4s0-.2,0-.3c0,0,0-.1,0-.2,0,0,0-.1,0-.2,0,0,0-.1,0-.2.1-.3.3-.7.5-1,0-.1.1-.2.2-.3,0-.1.1-.2.2-.3,0,0,0-.1.1-.2,0,0,.1-.2.2-.2.1-.1.2-.3.4-.4,0,0,0,0,.1-.1,0,0,0,0,.1-.1h-7.5c.3-.7.7-1.4,1.1-2h11.4Z"/>
  <path class="st1" d="M283.8,39.4v2h-.6c0,0-.1,0-.2,0h-.2c0,0-.1,0-.2,0s0,0-.1,0c0,0-.1,0-.2,0,0,0,0,0,0,0s0,0,0,0c0,0,0,0,0,0,0,0,0,0,0,0s0,0,0,0h0s0,0,0,0c0,0,0,0,0,0h0s0,0,0,0,0,0,0,0c0,0,0,0,0,0s0,0,0,0c0,0,0,0-.1,0,0,0,0,0,0,0,0,0,0,0,0,0s0,0,0,0c0,0,0,0,0,0,0,0,0,0,0,0s0,0,0,0c0,0,0,0-.1,0,0,0,0,0,0,0,0,0,0,0,0,0,0,0-.1,0-.2,0,0,0-.1,0-.2,0,0,0,0,0,0,0s0,0,0,0h0s0,0,0,0c0,0,0,0,0,0s0,0,0,0,0,0,0,0,0,0,0,0,0,0,0,0h0c0,0-.2,0-.3,0,0,0-.2,0-.2,0,0,0,0,0,0,0,0,0,0,0,0,0h0s0,0,0,0t0,0s0,0,0,0c0,0,0,0,0,0,0,0,0,0,0,0,0,0,0,0,0,0,0,0,0,0,0,0,0,0,0,0-.1,0,0,0,0,0,0,0s0,0,0,0c0,0,0,0,0,0,0,0,0,0,0,0,0,0,0,0,0,0,0,0,0,0,0,0h0s0,0-.1,0c0,0-.1,0-.2,0,0,0,0,0,0,0t0,0s0,0-.1,0c0,0-.2,0-.3-.1,0,0,0,0-.1,0,0,0,0,0,0,0s0,0,0,0c0,0,0,0,0,0,0,0,0,0,0,0,0,0,0,0,0,0,0,0,0,0,0,0,0,0-.1,0-.2,0-.1,0-.2-.1-.3-.2,0,0,0,0,0,0,0,0,0,0,0,0,0,0,0,0,0,0,0,0-.1,0-.2-.1h0s0,0,0,0h7.1Z"/>
  <path class="st0" d="M306.7,57.5h-3.9l-.7,1.5h-1.8l3.5-7.4h1.8l3.5,7.4h-1.8l-.7-1.5ZM306,56.1l-1.3-2.8-1.3,2.8h2.6Z"/>
  <path class="st0" d="M320.8,54.9v.2c0,3-1.9,4-3.9,4s-4.4-1.2-4.4-3.8,2.2-3.8,4.5-3.8,2.6.4,3.5.9l-.5,1.4c-.7-.4-1.7-.8-2.9-.8s-2.8.7-2.8,2.3,1.3,2.4,2.6,2.4,2-.5,2.2-1.5h-2v-1.3h3.8Z"/>
  <path class="st0" d="M329.5,55.9v1.4h-1v1.8h-1.7v-1.8h-5.1v-1.4l4.7-4.1h2.1v4.2h1ZM323.6,55.9h3.2v-2.8l-3.2,2.8Z"/>
  <path class="st0" d="M330.2,57.4c1-.2,5.5-1.2,5.5-3.2s-.8-1.2-1.8-1.2-2.5.5-3.2,1l-.5-1.4c.9-.5,2.3-1,3.8-1s3.4.7,3.4,2.5-2.4,3.1-4,3.5h4v1.5h-7.2v-1.6Z"/>
  <path class="st0" d="M341,56.1c0-1.9,1.4-3,3.3-3s1.7.2,2.5.7l-.6,1.3c-.6-.5-1.2-.7-2-.7s-1.8.6-1.8,1.7.8,1.7,1.7,1.7,1.3-.2,2-.7l.6,1.3c-.9.6-1.7.8-2.6.8-1.9,0-3.3-1.1-3.3-3Z"/>
  <path class="st0" d="M347.5,56.1c0-1.8,1.4-3,3.2-3s3.2,1.2,3.2,3-1.3,3-3.2,3-3.2-1.2-3.2-3ZM352.4,56.1c0-1-.7-1.6-1.7-1.6s-1.6.6-1.6,1.6.7,1.6,1.6,1.6,1.7-.6,1.7-1.6Z"/>
  <path class="st0" d="M364,55.4v3.6h-1.6v-3.4c0-.6-.3-1-.9-1s-1.2.6-1.3,1.9v2.6h-1.6v-3.4c0-.6-.3-1-.9-1s-1.3.7-1.3,2.3v2.2h-1.6v-5.8h1.6v1.4c.3-.9.9-1.5,1.8-1.5s1.6.5,1.8,1.5c.3-.9,1-1.5,1.9-1.5,1.2,0,1.9.8,1.9,2.3Z"/>
  <path class="st0" d="M371.7,56.1c0,1.8-1.2,3-2.8,3s-1.8-.5-2.2-1.3v3.2h-1.6v-7.8h1.6v1.1c.4-.8,1.2-1.3,2.2-1.3,1.6,0,2.8,1.2,2.8,3ZM370.1,56.1c0-1-.7-1.7-1.7-1.7s-1.7.7-1.7,1.7.7,1.7,1.7,1.7,1.7-.7,1.7-1.7Z"/>
  <path class="st0" d="M378.3,55.5v3.5h-1.6v-1.4c-.5,1-1.4,1.5-2.5,1.5s-1.7-.4-1.7-1.4c0-1.6,2.6-2.2,4.1-2.4-.1-.6-.6-.9-1.3-.9s-1.6.3-2.2.7l-.5-1.2c.8-.5,1.8-.8,2.8-.8,1.5,0,2.8.6,2.8,2.4ZM376.7,56.1c-1.6.3-2.5.6-2.5,1.2s.4.5.7.5c.8,0,1.7-.8,1.8-1.7Z"/>
  <path class="st0" d="M385.5,55.8v3.3h-1.6v-3c0-1-.4-1.5-1.3-1.5s-1.7.8-1.7,2.8v1.7h-1.6v-5.8h1.6v1.6c.4-1,1.1-1.7,2.2-1.7s2.3.9,2.3,2.7Z"/>
  <path class="st0" d="M393,53.2l-2.8,5.8c-.7,1.5-1.3,2.2-2.6,2.2s-.8,0-1.3-.1l.2-1.4c.4.1.8.2,1.1.2.6,0,.8-.4,1-.9h0c0-.1-2.7-5.8-2.7-5.8h1.7l1.8,4,1.8-4h1.7Z"/>
</svg>