<svg width="24" height="25" viewBox="0 0 24 25" fill="none" xmlns="http://www.w3.org/2000/svg">
<rect y="0.321045" width="24" height="24" rx="12" fill="white"/>
<path d="M6 7.80954C6 7.33508 6.39722 6.94995 6.88688 6.94995H17.1131C17.603 6.94995 18 7.33508 18 7.80954V18.0905C18 18.5651 17.603 18.95 17.1131 18.95H6.88688C6.39727 18.95 6 18.5652 6 18.0906V7.8094V7.80954Z" fill="#192031"/>
<path d="M9.81603 16.9498V11.552H8.10108V16.9498H9.81621H9.81603ZM8.95891 10.8151C9.55683 10.8151 9.92907 10.4007 9.92907 9.88266C9.91787 9.35287 9.55683 8.94995 8.97029 8.94995C8.38334 8.94995 8 9.35287 8 9.88261C8 10.4006 8.37211 10.8151 8.94768 10.8151H8.95878L8.95891 10.8151ZM10.7653 16.9498H12.4801V13.9357C12.4801 13.7746 12.4913 13.6131 12.5366 13.498C12.6605 13.1756 12.9427 12.8418 13.4165 12.8418C14.0369 12.8418 14.2852 13.3367 14.2852 14.0624V16.9498H16V13.8548C16 12.1969 15.1541 11.4254 14.0258 11.4254C13.1008 11.4254 12.6945 11.9663 12.4688 12.3347H12.4802V11.5522H10.7654C10.7877 12.0585 10.7652 16.95 10.7652 16.95L10.7653 16.9498Z" fill="white"/>
</svg>
