<svg width="24" height="25" viewBox="0 0 24 25" fill="none" xmlns="http://www.w3.org/2000/svg">
<rect y="0.321045" width="24" height="24" rx="12" fill="white"/>
<g clip-path="url(#clip0_971_6517)">
<path d="M12.0021 9.46736C10.3987 9.46736 9.10542 10.7404 9.10542 12.3187C9.10542 13.897 10.3987 15.1701 12.0021 15.1701C13.6054 15.1701 14.8987 13.897 14.8987 12.3187C14.8987 10.7404 13.6054 9.46736 12.0021 9.46736ZM12.0021 14.1725C10.9659 14.1725 10.1189 13.3412 10.1189 12.3187C10.1189 11.2963 10.9634 10.465 12.0021 10.465C13.0407 10.465 13.8852 11.2963 13.8852 12.3187C13.8852 13.3412 13.0382 14.1725 12.0021 14.1725ZM15.6928 9.35073C15.6928 9.72049 15.3903 10.0158 15.0172 10.0158C14.6415 10.0158 14.3415 9.718 14.3415 9.35073C14.3415 8.98345 14.6441 8.68565 15.0172 8.68565C15.3903 8.68565 15.6928 8.98345 15.6928 9.35073ZM17.6113 10.0257C17.5684 9.13482 17.3617 8.34567 16.6987 7.69549C16.0382 7.0453 15.2365 6.84181 14.3315 6.79714C13.3987 6.74503 10.6029 6.74503 9.67012 6.79714C8.7676 6.83933 7.96592 7.04282 7.3029 7.69301C6.63987 8.34319 6.43567 9.13234 6.39029 10.0232C6.33735 10.9414 6.33735 13.6936 6.39029 14.6118C6.43315 15.5027 6.63987 16.2918 7.3029 16.942C7.96592 17.5922 8.76508 17.7957 9.67012 17.8403C10.6029 17.8924 13.3987 17.8924 14.3315 17.8403C15.2365 17.7981 16.0382 17.5947 16.6987 16.942C17.3592 16.2918 17.5659 15.5027 17.6113 14.6118C17.6642 13.6936 17.6642 10.9439 17.6113 10.0257ZM16.4062 15.597C16.2096 16.0834 15.8289 16.4581 15.3323 16.6541C14.5886 16.9445 12.8239 16.8775 12.0021 16.8775C11.1802 16.8775 9.41298 16.942 8.6718 16.6541C8.17769 16.4606 7.79701 16.0858 7.59785 15.597C7.3029 14.8649 7.37096 13.1277 7.37096 12.3187C7.37096 11.5097 7.30542 9.77012 7.59785 9.04052C7.79449 8.55413 8.17516 8.1794 8.6718 7.98335C9.4155 7.69301 11.1802 7.76001 12.0021 7.76001C12.8239 7.76001 14.5911 7.69549 15.3323 7.98335C15.8264 8.17692 16.2071 8.55164 16.4062 9.04052C16.7012 9.7726 16.6331 11.5097 16.6331 12.3187C16.6331 13.1277 16.7012 14.8674 16.4062 15.597Z" fill="#192031"/>
</g>
<defs>
<clipPath id="clip0_971_6517">
<rect width="11.2941" height="12.7059" fill="white" transform="translate(6.35266 5.96802)"/>
</clipPath>
</defs>
</svg>
