<svg width="24" height="25" viewBox="0 0 24 25" fill="none" xmlns="http://www.w3.org/2000/svg">
<rect y="0.321045" width="24" height="24" rx="12" fill="white"/>
<path d="M12.2659 15.9395L9.80392 15.8961C9.0068 15.881 8.20769 15.9111 7.4262 15.7545C6.23738 15.5204 6.15316 14.3728 6.06503 13.4101C5.9436 12.0567 5.99061 10.6788 6.21976 9.33668C6.34913 8.58363 6.85824 8.13428 7.64556 8.08538C10.3033 7.90792 12.9788 7.92895 15.6307 8.01174C15.9108 8.01933 16.1928 8.06081 16.4689 8.10803C17.8322 8.33833 17.8654 9.63887 17.9538 10.7337C18.0419 11.8398 18.0047 12.9516 17.8363 14.0502C17.7011 14.9598 17.4426 15.7226 16.3514 15.7962C14.9843 15.8925 13.6485 15.97 12.2776 15.9453C12.2776 15.9395 12.2698 15.9395 12.2659 15.9395ZM10.8185 13.6366C11.8487 13.0665 12.8593 12.506 13.8837 11.9397C12.8515 11.3696 11.8428 10.809 10.8185 10.2427V13.6366Z" fill="#192031"/>
</svg>
